<svg width="46.659px" height="46.659px" viewBox="-4.46 0 46.659 46.659" xmlns="http://www.w3.org/2000/svg"><g transform="translate(-634.051 -293.175)"><path d="M652.918,339.334c21.442-6.974,18.109-37.463,18.109-37.463-13.236-.725-18.109-8.2-18.109-8.2s-4.873,7.471-18.108,8.2C634.81,301.871,631.477,332.36,652.918,339.334Z" fill="none" stroke="#231f20" stroke-linecap="round" stroke-linejoin="round" stroke-width="1"/><path d="M654.054,309.377l1.378,2.791a1.272,1.272,0,0,0,.959.7l3.08.447a1.274,1.274,0,0,1,.706,2.173l-2.229,2.173a1.275,1.275,0,0,0-.366,1.128l.526,3.067a1.273,1.273,0,0,1-1.848,1.343l-2.755-1.448a1.276,1.276,0,0,0-1.186,0l-2.755,1.448a1.273,1.273,0,0,1-1.848-1.343l.526-3.067a1.272,1.272,0,0,0-.367-1.128l-2.228-2.173a1.274,1.274,0,0,1,.706-2.173l3.08-.447a1.274,1.274,0,0,0,.959-.7l1.377-2.791A1.274,1.274,0,0,1,654.054,309.377Z" fill="none" stroke="#231f20" stroke-linecap="round" stroke-linejoin="round" stroke-width="1"/><circle cx="2.155" cy="2.155" r="2.155" transform="translate(650.743 304.376)" fill="none" stroke="#231f20" stroke-linecap="round" stroke-linejoin="round" stroke-width="1"/><circle cx="2.155" cy="2.155" r="2.155" transform="translate(656.914 322.889)" fill="none" stroke="#231f20" stroke-linecap="round" stroke-linejoin="round" stroke-width="1"/><circle cx="2.155" cy="2.155" r="2.155" transform="translate(661.028 311.576)" fill="none" stroke="#231f20" stroke-linecap="round" stroke-linejoin="round" stroke-width="1"/><circle cx="2.155" cy="2.155" r="2.155" transform="translate(644.033 322.889)" fill="none" stroke="#231f20" stroke-linecap="round" stroke-linejoin="round" stroke-width="1"/><circle cx="2.155" cy="2.155" r="2.155" transform="translate(640.947 311.576)" fill="none" stroke="#231f20" stroke-linecap="round" stroke-linejoin="round" stroke-width="1"/></g></svg>